<svg xmlns="http://www.w3.org/2000/svg" width="980" height="1710" viewBox="0 0 980 1710">
<rect width="100%" height="100%" fill="#0f172a"/>
<style>
text { fill: #e2e8f0; font-family: Arial, sans-serif; }
.label { font-size: 13px; }
.title { font-size: 18px; font-weight: bold; }
.small { font-size: 11px; }
.legend { font-size: 12px; }
.grid { stroke: #334155; stroke-width: 1; }
.axis { stroke: #94a3b8; stroke-width: 2; }
.path { fill: none; stroke: #38bdf8; stroke-width: 3; }
.guide { fill: none; stroke: #64748b; stroke-width: 1.5; stroke-dasharray: 6 4; }
</style>
<text x="30" y="30" class="title">Trajectory Visualization</text>
<rect x="30" y="42" width="920" height="52" rx="10" fill="#111827" stroke="#334155"/>
<circle cx="55" cy="61" r="6" fill="#22c55e"/>
<text x="68" y="65" class="legend">drone - початкова позиція дрона</text>
<circle cx="315" cy="61" r="6" fill="#f59e0b"/>
<text x="328" y="65" class="legend">intermediate - точка маневру перед атакою</text>
<circle cx="625" cy="61" r="6" fill="#38bdf8"/>
<text x="638" y="65" class="legend">drop - точка скиду боєприпасу</text>
<circle cx="55" cy="82" r="6" fill="#ef4444"/>
<text x="68" y="86" class="legend">target - координати цілі</text>
<line x1="315" y1="82" x2="380" y2="82" class="guide"/>
<text x="390" y="86" class="legend">маршрут: drone -> intermediate -> drop -> target</text>
<text x="30" y="110" class="title">Case 1 (VOG-17)</text>
<rect x="30" y="130" width="430" height="220" fill="#111827" stroke="#475569"/>
<rect x="520" y="130" width="430" height="220" fill="#111827" stroke="#475569"/>
<text x="30" y="124" class="label">Top view (X/Y)</text>
<text x="520" y="124" class="label">Side view (distance/height)</text>
<line x1="206.575" y1="257.135" x2="396.644" y2="172.378" class="guide"/>
<circle cx="93.3562" cy="307.622" r="5" fill="#f59e0b"/>
<text x="101.356" y="299.622" class="small">intermediate</text>
<circle cx="206.575" cy="257.135" r="6" fill="#22c55e"/>
<text x="214.575" y="249.135" class="small">drone</text>
<circle cx="132.893" cy="289.991" r="6" fill="#38bdf8"/>
<text x="140.893" y="281.991" class="small">drop</text>
<circle cx="396.644" cy="172.378" r="6" fill="#ef4444"/>
<text x="404.644" y="164.378" class="small">target</text>
<line x1="520" y1="350" x2="950" y2="350" class="axis"/>
<path d="M 520 130 L 531.247 130.109 L 542.25 130.431 L 553.012 130.962 L 563.54 131.698 L 573.84 132.633 L 583.916 133.762 L 593.775 135.082 L 603.422 136.586 L 612.862 138.27 L 622.101 140.13 L 631.145 142.16 L 639.999 144.355 L 648.668 146.712 L 657.158 149.224 L 665.476 151.888 L 673.625 154.697 L 681.612 157.649 L 689.442 160.737 L 697.121 163.957 L 704.654 167.304 L 712.048 170.773 L 719.306 174.36 L 726.435 178.059 L 733.441 181.866 L 740.329 185.776 L 747.104 189.784 L 753.772 193.885 L 760.339 198.075 L 766.81 202.348 L 773.19 206.7 L 779.486 211.126 L 785.702 215.622 L 791.845 220.182 L 797.919 224.801 L 803.93 229.475 L 809.885 234.199 L 815.787 238.968 L 821.643 243.777 L 827.459 248.621 L 833.24 253.497 L 838.991 258.398 L 844.718 263.319 L 850.426 268.258 L 856.122 273.207 L 861.81 278.163 L 867.496 283.12 L 873.186 288.075 L 878.885 293.021 L 884.599 297.955 L 890.333 302.871 L 896.092 307.764 L 901.883 312.63 L 907.711 317.464 L 913.581 322.262 L 919.499 327.017 L 925.47 331.726 L 931.5 336.384 L 937.595 340.985 L 943.76 345.525 L 950 350 " class="path"/>
<text x="520" y="372" class="small">t=6.62 s, h=100.07 m, D=72.11 m</text>
<text x="30.00" y="430.00" class="title">Case 2 (M67)</text>
<rect x="30.00" y="450.00" width="430.00" height="220.00" fill="#111827" stroke="#475569"/>
<rect x="520.00" y="450.00" width="430.00" height="220.00" fill="#111827" stroke="#475569"/>
<text x="30.00" y="444.00" class="label">Top view (X/Y)</text>
<text x="520.00" y="444.00" class="label">Side view (distance/height)</text>
<line x1="201.61" y1="579.30" x2="395.40" y2="493.10" class="guide"/>
<circle cx="94.60" cy="626.90" r="5" fill="#f59e0b"/>
<text x="102.60" y="618.90" class="small">intermediate</text>
<circle cx="201.61" cy="579.30" r="6" fill="#22c55e"/>
<text x="209.61" y="571.30" class="small">drone</text>
<circle cx="134.91" cy="608.97" r="6" fill="#38bdf8"/>
<text x="142.91" y="600.97" class="small">drop</text>
<circle cx="395.40" cy="493.10" r="6" fill="#ef4444"/>
<text x="403.40" y="485.10" class="small">target</text>
<line x1="520.00" y1="670.00" x2="950.00" y2="670.00" class="axis"/>
<path d="M 520.00 450.00 L 530.69 450.09 L 541.21 450.36 L 551.55 450.82 L 561.71 451.44 L 571.71 452.24 L 581.54 453.21 L 591.21 454.34 L 600.71 455.64 L 610.06 457.09 L 619.25 458.71 L 628.30 460.47 L 637.19 462.39 L 645.94 464.45 L 654.54 466.66 L 663.01 469.01 L 671.34 471.49 L 679.54 474.11 L 687.61 476.87 L 695.55 479.75 L 703.37 482.75 L 711.07 485.88 L 718.65 489.13 L 726.12 492.49 L 733.47 495.97 L 740.72 499.55 L 747.86 503.24 L 754.90 507.04 L 761.84 510.94 L 768.68 514.93 L 775.43 519.02 L 782.10 523.20 L 788.67 527.46 L 795.16 531.82 L 801.57 536.25 L 807.90 540.76 L 814.16 545.35 L 820.35 550.01 L 826.47 554.74 L 832.52 559.53 L 838.51 564.39 L 844.44 569.31 L 850.32 574.29 L 856.14 579.31 L 861.91 584.39 L 867.64 589.52 L 873.32 594.69 L 878.96 599.90 L 884.57 605.15 L 890.14 610.44 L 895.67 615.76 L 901.18 621.10 L 906.67 626.48 L 912.13 631.87 L 917.57 637.28 L 923.00 642.71 L 928.41 648.16 L 933.82 653.61 L 939.21 659.07 L 944.61 664.54 L 950.00 670.00 " class="path"/>
<text x="520.00" y="692.00" class="small">t=6.08 s, h=96.93 m, D=72.11 m</text>
<text x="30.00" y="750.00" class="title">Case 3 (RKG-3)</text>
<rect x="30.00" y="770.00" width="430.00" height="220.00" fill="#111827" stroke="#475569"/>
<rect x="520.00" y="770.00" width="430.00" height="220.00" fill="#111827" stroke="#475569"/>
<text x="30.00" y="764.00" class="label">Top view (X/Y)</text>
<text x="520.00" y="764.00" class="label">Side view (distance/height)</text>
<line x1="212.86" y1="894.38" x2="398.21" y2="811.46" class="guide"/>
<circle cx="91.79" cy="948.54" r="5" fill="#f59e0b"/>
<text x="99.79" y="940.54" class="small">intermediate</text>
<circle cx="212.86" cy="894.38" r="6" fill="#22c55e"/>
<text x="220.86" y="886.38" class="small">drone</text>
<circle cx="130.34" cy="931.29" r="6" fill="#38bdf8"/>
<text x="138.34" y="923.29" class="small">drop</text>
<circle cx="398.21" cy="811.46" r="6" fill="#ef4444"/>
<text x="406.21" y="803.46" class="small">target</text>
<line x1="520.00" y1="990.00" x2="950.00" y2="990.00" class="axis"/>
<path d="M 520.00 770.00 L 528.82 770.07 L 537.57 770.29 L 546.25 770.64 L 554.87 771.14 L 563.43 771.77 L 571.93 772.55 L 580.36 773.46 L 588.73 774.50 L 597.03 775.69 L 605.28 777.00 L 613.46 778.45 L 621.59 780.03 L 629.65 781.74 L 637.65 783.58 L 645.60 785.55 L 653.49 787.65 L 661.31 789.88 L 669.09 792.23 L 676.80 794.70 L 684.46 797.30 L 692.06 800.02 L 699.60 802.86 L 707.10 805.82 L 714.53 808.90 L 721.91 812.09 L 729.24 815.41 L 736.52 818.84 L 743.74 822.38 L 750.91 826.04 L 758.03 829.81 L 765.10 833.69 L 772.11 837.69 L 779.08 841.79 L 786.00 846.00 L 792.86 850.32 L 799.68 854.74 L 806.45 859.27 L 813.18 863.91 L 819.85 868.64 L 826.48 873.48 L 833.07 878.42 L 839.60 883.46 L 846.09 888.60 L 852.54 893.83 L 858.94 899.16 L 865.30 904.59 L 871.62 910.11 L 877.89 915.73 L 884.12 921.44 L 890.31 927.23 L 896.46 933.12 L 902.56 939.10 L 908.63 945.17 L 914.65 951.32 L 920.64 957.56 L 926.59 963.88 L 932.50 970.29 L 938.37 976.78 L 944.20 983.35 L 950.00 990.00 " class="path"/>
<text x="520.00" y="1012.00" class="small">t=5.36 s, h=104.21 m, D=72.11 m</text>
<text x="30.00" y="1070.00" class="title">Case 4 (GLIDING-VOG)</text>
<rect x="30.00" y="1090.00" width="430.00" height="220.00" fill="#111827" stroke="#475569"/>
<rect x="520.00" y="1090.00" width="430.00" height="220.00" fill="#111827" stroke="#475569"/>
<text x="30.00" y="1084.00" class="label">Top view (X/Y)</text>
<text x="520.00" y="1084.00" class="label">Side view (distance/height)</text>
<line x1="188.25" y1="1225.07" x2="392.06" y2="1135.02" class="guide"/>
<circle cx="97.94" cy="1264.98" r="5" fill="#f59e0b"/>
<text x="105.94" y="1256.98" class="small">intermediate</text>
<circle cx="188.25" cy="1225.07" r="6" fill="#22c55e"/>
<text x="196.25" y="1217.07" class="small">drone</text>
<circle cx="140.33" cy="1246.24" r="6" fill="#38bdf8"/>
<text x="148.33" y="1238.24" class="small">drop</text>
<circle cx="392.06" cy="1135.02" r="6" fill="#ef4444"/>
<text x="400.06" y="1127.02" class="small">target</text>
<line x1="520.00" y1="1310.00" x2="950.00" y2="1310.00" class="axis"/>
<path d="M 520.00 1090.00 L 533.32 1090.06 L 546.30 1090.22 L 558.97 1090.50 L 571.33 1090.90 L 583.41 1091.40 L 595.22 1092.02 L 606.76 1092.76 L 618.06 1093.61 L 629.12 1094.57 L 639.96 1095.65 L 650.58 1096.85 L 661.00 1098.17 L 671.23 1099.60 L 681.27 1101.15 L 691.14 1102.82 L 700.84 1104.61 L 710.37 1106.52 L 719.75 1108.55 L 728.99 1110.70 L 738.07 1112.98 L 747.01 1115.37 L 755.82 1117.89 L 764.49 1120.53 L 773.03 1123.30 L 781.44 1126.19 L 789.72 1129.20 L 797.87 1132.34 L 805.89 1135.61 L 813.77 1139.00 L 821.52 1142.52 L 829.13 1146.17 L 836.61 1149.95 L 843.93 1153.85 L 851.11 1157.89 L 858.13 1162.05 L 864.99 1166.35 L 871.68 1170.77 L 878.19 1175.33 L 884.51 1180.02 L 890.63 1184.84 L 896.55 1189.80 L 902.25 1194.89 L 907.73 1200.11 L 912.95 1205.47 L 917.92 1210.96 L 922.63 1216.59 L 927.04 1222.36 L 931.15 1228.26 L 934.95 1234.30 L 938.40 1240.48 L 941.51 1246.80 L 944.23 1253.26 L 946.57 1259.86 L 948.49 1266.59 L 949.97 1273.47 L 950.00 1280.49 L 950.00 1287.66 L 950.00 1294.96 L 950.00 1302.41 L 950.00 1310.00 " class="path"/>
<text x="520.00" y="1332.00" class="small">t=6.98 s, h=89.06 m, D=72.11 m</text>
<text x="30.00" y="1390.00" class="title">Case 5 (GLIDING-RKG)</text>
<rect x="30.00" y="1410.00" width="430.00" height="220.00" fill="#111827" stroke="#475569"/>
<rect x="520.00" y="1410.00" width="430.00" height="220.00" fill="#111827" stroke="#475569"/>
<text x="30.00" y="1404.00" class="label">Top view (X/Y)</text>
<text x="520.00" y="1404.00" class="label">Side view (distance/height)</text>
<line x1="242.69" y1="1521.05" x2="405.67" y2="1447.02" class="guide"/>
<circle cx="84.33" cy="1592.98" r="5" fill="#f59e0b"/>
<text x="92.33" y="1584.98" class="small">intermediate</text>
<circle cx="242.69" cy="1521.05" r="6" fill="#22c55e"/>
<text x="250.69" y="1513.05" class="small">drone</text>
<circle cx="118.23" cy="1577.58" r="6" fill="#38bdf8"/>
<text x="126.23" y="1569.58" class="small">drop</text>
<circle cx="405.67" cy="1447.02" r="6" fill="#ef4444"/>
<text x="413.67" y="1439.02" class="small">target</text>
<line x1="520.00" y1="1630.00" x2="950.00" y2="1630.00" class="axis"/>
<path d="M 520.00 1410.00 L 527.77 1410.07 L 535.49 1410.27 L 543.16 1410.61 L 550.78 1411.09 L 558.36 1411.70 L 565.90 1412.44 L 573.39 1413.32 L 580.84 1414.32 L 588.26 1415.46 L 595.64 1416.73 L 602.98 1418.13 L 610.29 1419.65 L 617.58 1421.31 L 624.83 1423.09 L 632.05 1425.00 L 639.25 1427.04 L 646.43 1429.20 L 653.58 1431.48 L 660.71 1433.89 L 667.82 1436.42 L 674.92 1439.08 L 681.99 1441.85 L 689.05 1444.75 L 696.10 1447.76 L 703.14 1450.90 L 710.16 1454.15 L 717.17 1457.52 L 724.18 1461.01 L 731.17 1464.62 L 738.17 1468.34 L 745.15 1472.17 L 752.13 1476.12 L 759.11 1480.18 L 766.09 1484.36 L 773.07 1488.65 L 780.04 1493.04 L 787.02 1497.55 L 794.00 1502.17 L 800.99 1506.90 L 807.98 1511.73 L 814.97 1516.67 L 821.97 1521.72 L 828.98 1526.88 L 836.00 1532.14 L 843.03 1537.50 L 850.06 1542.97 L 857.11 1548.54 L 864.16 1554.22 L 871.23 1559.99 L 878.32 1565.87 L 885.41 1571.84 L 892.52 1577.92 L 899.65 1584.09 L 906.79 1590.36 L 913.95 1596.73 L 921.12 1603.19 L 928.31 1609.75 L 935.52 1616.41 L 942.75 1623.16 L 950.00 1630.00 " class="path"/>
<text x="520.00" y="1652.00" class="small">t=5.77 s, h=127.18 m, D=72.11 m</text>
</svg>
