<svg xmlns="http://www.w3.org/2000/svg" width="1100" height="820" viewBox="0 0 1100 820">
<rect width="100%" height="100%" fill="#0f172a"/>
<style>
text { fill: #e2e8f0; font-family: Arial, sans-serif; }
.title { font-size: 22px; font-weight: bold; }
.meta { font-size: 14px; }
.small { font-size: 12px; }
.grid { stroke: #334155; stroke-width: 1; }
.frame { fill: #111827; stroke: #475569; stroke-width: 2; }
.drone { fill: none; stroke: #38bdf8; stroke-width: 4; }
.drop { fill: #f8fafc; stroke: #f97316; stroke-width: 3; }
.start { fill: #22c55e; }
.end { fill: #38bdf8; }
.legend-line { stroke-width: 3; fill: none; }
</style>
<text x="40" y="38" class="title">Drone Simulation</text>
<text x="40" y="62" class="meta">steps=84, totalTime=8.30 s, selectedTarget=2, dropped=YES</text>
<rect x="70.00" y="70.00" width="960.00" height="680.00" class="frame"/>
<line x1="70.00" y1="70.00" x2="70.00" y2="750.00" class="grid"/>
<line x1="70.00" y1="70.00" x2="1030.00" y2="70.00" class="grid"/>
<line x1="166.00" y1="70.00" x2="166.00" y2="750.00" class="grid"/>
<line x1="70.00" y1="138.00" x2="1030.00" y2="138.00" class="grid"/>
<line x1="262.00" y1="70.00" x2="262.00" y2="750.00" class="grid"/>
<line x1="70.00" y1="206.00" x2="1030.00" y2="206.00" class="grid"/>
<line x1="358.00" y1="70.00" x2="358.00" y2="750.00" class="grid"/>
<line x1="70.00" y1="274.00" x2="1030.00" y2="274.00" class="grid"/>
<line x1="454.00" y1="70.00" x2="454.00" y2="750.00" class="grid"/>
<line x1="70.00" y1="342.00" x2="1030.00" y2="342.00" class="grid"/>
<line x1="550.00" y1="70.00" x2="550.00" y2="750.00" class="grid"/>
<line x1="70.00" y1="410.00" x2="1030.00" y2="410.00" class="grid"/>
<line x1="646.00" y1="70.00" x2="646.00" y2="750.00" class="grid"/>
<line x1="70.00" y1="478.00" x2="1030.00" y2="478.00" class="grid"/>
<line x1="742.00" y1="70.00" x2="742.00" y2="750.00" class="grid"/>
<line x1="70.00" y1="546.00" x2="1030.00" y2="546.00" class="grid"/>
<line x1="838.00" y1="70.00" x2="838.00" y2="750.00" class="grid"/>
<line x1="70.00" y1="614.00" x2="1030.00" y2="614.00" class="grid"/>
<line x1="934.00" y1="70.00" x2="934.00" y2="750.00" class="grid"/>
<line x1="70.00" y1="682.00" x2="1030.00" y2="682.00" class="grid"/>
<line x1="1030.00" y1="70.00" x2="1030.00" y2="750.00" class="grid"/>
<line x1="70.00" y1="750.00" x2="1030.00" y2="750.00" class="grid"/>
<path d="M 731.82 410.00 L 731.96 410.00 L 732.11 410.00 L 732.25 410.00 L 732.40 410.00 L 732.55 410.00 L 732.69 410.00 L 732.84 410.00 L 732.98 410.00 L 733.13 410.00 L 733.27 410.00 L 733.42 410.00 L 733.56 410.00 L 733.71 410.00 L 733.85 410.00 L 734.00 410.00 L 734.15 410.00 L 734.29 410.00 L 734.44 410.00 L 734.58 410.00 L 734.73 410.00 L 734.87 410.00 L 735.02 410.00 L 735.16 410.00 L 735.31 410.00 L 735.45 410.00 L 735.60 410.00 L 735.75 410.00 L 735.89 410.00 L 736.04 410.00 L 736.18 410.00 L 736.33 410.00 L 736.47 410.00 L 736.62 410.00 L 736.76 410.00 L 736.91 410.00 L 737.05 410.00 L 737.20 410.00 L 737.35 410.00 L 737.49 410.00 L 737.64 410.00 L 737.78 410.00 L 737.93 410.00 L 738.07 410.00 L 738.22 410.00 L 738.36 410.00 L 738.51 410.00 L 738.65 410.00 L 738.80 410.00 L 738.95 410.00 L 739.09 410.00 L 739.24 410.00 L 739.38 410.00 L 739.53 410.00 L 739.67 410.00 L 739.82 410.00 L 739.96 410.00 L 740.11 410.00 L 740.25 410.00 L 740.40 410.00 L 740.55 410.00 L 740.69 410.00 L 740.84 410.00 L 740.98 410.00 L 741.13 410.00 L 741.27 410.00 L 741.42 410.00 L 741.56 410.00 L 741.71 410.00 L 741.85 410.00 L 742.00 410.00 L 742.15 410.00 L 742.29 410.00 L 742.44 410.00 L 742.58 410.00 L 742.73 410.00 L 742.87 410.00 L 743.02 410.00 L 743.16 410.00 L 743.31 410.00 L 743.45 410.00 L 743.60 410.00 L 743.75 410.00 L 743.89 410.00 " fill="none" stroke="#ef4444" stroke-width="2" stroke-opacity="0.75"/>
<circle cx="743.89" cy="410.00" r="5" fill="#ef4444"/>
<text x="751.89" y="402.00" class="small">T0</text>
<path d="M 950.00 240.00 L 949.96 239.43 L 949.93 238.87 L 949.89 238.30 L 949.85 237.74 L 949.82 237.17 L 949.78 236.61 L 949.75 236.04 L 949.71 235.47 L 949.67 234.91 L 949.64 234.34 L 949.53 233.78 L 949.42 233.22 L 949.31 232.66 L 949.20 232.10 L 949.09 231.54 L 948.98 230.98 L 948.88 230.42 L 948.77 229.86 L 948.66 229.30 L 948.55 228.74 L 948.37 228.19 L 948.19 227.64 L 948.01 227.10 L 947.83 226.55 L 947.65 226.00 L 947.47 225.45 L 947.29 224.90 L 947.11 224.35 L 946.93 223.80 L 946.75 223.25 L 946.50 222.72 L 946.25 222.19 L 946.00 221.66 L 945.75 221.13 L 945.51 220.59 L 945.26 220.06 L 945.01 219.53 L 944.76 219.00 L 944.51 218.46 L 944.26 217.93 L 943.94 217.42 L 943.63 216.91 L 943.31 216.40 L 942.99 215.89 L 942.68 215.38 L 942.36 214.87 L 942.05 214.36 L 941.73 213.85 L 941.41 213.34 L 941.10 212.83 L 940.72 212.35 L 940.34 211.87 L 939.96 211.38 L 939.58 210.90 L 939.20 210.42 L 938.82 209.94 L 938.44 209.45 L 938.06 208.97 L 937.68 208.49 L 937.30 208.00 L 936.86 207.55 L 936.42 207.10 L 935.98 206.65 L 935.54 206.20 L 935.10 205.75 L 934.66 205.30 L 934.22 204.85 L 933.78 204.40 L 933.34 203.95 L 932.90 203.49 L 932.40 203.08 L 931.91 202.67 L 931.41 202.25 L 930.92 201.84 L 930.42 201.42 L 929.92 201.01 L 929.43 200.59 L 928.93 200.18 L 928.44 199.76 L 927.94 199.35 L 927.40 198.98 L 926.85 198.60 L 926.30 198.23 " fill="none" stroke="#f59e0b" stroke-width="2" stroke-opacity="0.75"/>
<circle cx="926.30" cy="198.23" r="5" fill="#f59e0b"/>
<text x="934.30" y="190.23" class="small">T1</text>
<path d="M 586.36 580.00 L 586.36 580.00 L 586.36 580.00 L 586.36 580.00 L 586.36 580.00 L 586.36 580.00 L 586.36 580.00 L 586.36 580.00 L 586.36 580.00 L 586.36 580.00 L 586.36 580.00 L 586.36 580.00 L 586.36 580.00 L 586.36 580.00 L 586.36 580.00 L 586.36 580.00 L 586.36 580.00 L 586.36 580.00 L 586.36 580.00 L 586.36 580.00 L 586.36 580.00 L 586.36 580.00 L 586.36 580.00 L 586.36 580.00 L 586.36 580.00 L 586.36 580.00 L 586.36 580.00 L 586.36 580.00 L 586.36 580.00 L 586.36 580.00 L 586.36 580.00 L 586.36 580.00 L 586.36 580.00 L 586.36 580.00 L 586.36 580.00 L 586.36 580.00 L 586.36 580.00 L 586.36 580.00 L 586.36 580.00 L 586.36 580.00 L 586.36 580.00 L 586.36 580.00 L 586.36 580.00 L 586.36 580.00 L 586.36 580.00 L 586.36 580.00 L 586.36 580.00 L 586.36 580.00 L 586.36 580.00 L 586.36 580.00 L 586.36 580.00 L 586.36 580.00 L 586.36 580.00 L 586.36 580.00 L 586.36 580.00 L 586.36 580.00 L 586.36 580.00 L 586.36 580.00 L 586.36 580.00 L 586.36 580.00 L 586.36 580.00 L 586.36 580.00 L 586.36 580.00 L 586.36 580.00 L 586.36 580.00 L 586.36 580.00 L 586.36 580.00 L 586.36 580.00 L 586.36 580.00 L 586.36 580.00 L 586.36 580.00 L 586.36 580.00 L 586.36 580.00 L 586.36 580.00 L 586.36 580.00 L 586.36 580.00 L 586.36 580.00 L 586.36 580.00 L 586.36 580.00 L 586.36 580.00 L 586.36 580.00 L 586.36 580.00 L 586.36 580.00 L 586.36 580.00 " fill="none" stroke="#22c55e" stroke-width="2" stroke-opacity="0.75"/>
<circle cx="586.36" cy="580.00" r="5" fill="#22c55e"/>
<text x="594.36" y="572.00" class="small">T2</text>
<path d="M 659.09 126.67 L 659.16 126.72 L 659.24 126.78 L 659.31 126.84 L 659.38 126.89 L 659.45 126.95 L 659.53 127.01 L 659.60 127.06 L 659.67 127.12 L 659.75 127.18 L 659.82 127.23 L 659.89 127.29 L 659.96 127.35 L 660.04 127.40 L 660.11 127.46 L 660.18 127.52 L 660.25 127.57 L 660.33 127.63 L 660.40 127.69 L 660.47 127.74 L 660.55 127.80 L 660.62 127.86 L 660.69 127.91 L 660.76 127.97 L 660.84 128.03 L 660.91 128.08 L 660.98 128.14 L 661.05 128.20 L 661.13 128.25 L 661.20 128.31 L 661.27 128.37 L 661.35 128.42 L 661.42 128.48 L 661.49 128.54 L 661.56 128.59 L 661.64 128.65 L 661.71 128.71 L 661.78 128.76 L 661.85 128.82 L 661.93 128.88 L 662.00 128.93 L 662.07 128.99 L 662.15 129.05 L 662.22 129.10 L 662.29 129.16 L 662.36 129.22 L 662.44 129.27 L 662.51 129.33 L 662.58 129.39 L 662.65 129.44 L 662.73 129.50 L 662.80 129.56 L 662.87 129.61 L 662.95 129.67 L 663.02 129.73 L 663.09 129.78 L 663.16 129.84 L 663.24 129.90 L 663.31 129.95 L 663.38 130.01 L 663.45 130.07 L 663.53 130.12 L 663.60 130.18 L 663.67 130.24 L 663.75 130.29 L 663.82 130.35 L 663.89 130.41 L 663.96 130.46 L 664.04 130.52 L 664.11 130.58 L 664.18 130.63 L 664.25 130.69 L 664.33 130.75 L 664.40 130.80 L 664.47 130.86 L 664.55 130.92 L 664.62 130.97 L 664.69 131.03 L 664.76 131.09 L 664.84 131.14 L 664.91 131.20 L 664.98 131.26 L 665.05 131.31 L 665.13 131.37 " fill="none" stroke="#a855f7" stroke-width="2" stroke-opacity="0.75"/>
<circle cx="665.13" cy="131.37" r="5" fill="#a855f7"/>
<text x="673.13" y="123.37" class="small">T3</text>
<path d="M 804.55 693.33 L 805.41 693.30 L 806.28 693.27 L 807.15 693.23 L 808.01 693.20 L 808.88 693.16 L 809.75 693.13 L 810.61 693.10 L 811.48 693.06 L 812.35 693.03 L 813.21 692.99 L 814.05 692.96 L 814.88 692.93 L 815.71 692.89 L 816.54 692.86 L 817.38 692.82 L 818.21 692.79 L 819.04 692.76 L 819.87 692.72 L 820.71 692.69 L 821.54 692.65 L 822.30 692.62 L 823.07 692.59 L 823.83 692.55 L 824.60 692.52 L 825.36 692.48 L 826.13 692.45 L 826.89 692.42 L 827.65 692.38 L 828.42 692.35 L 829.18 692.31 L 829.85 692.28 L 830.52 692.25 L 831.18 692.21 L 831.85 692.18 L 832.52 692.14 L 833.18 692.11 L 833.85 692.08 L 834.52 692.04 L 835.18 692.01 L 835.85 691.97 L 836.39 691.94 L 836.93 691.91 L 837.47 691.87 L 838.01 691.84 L 838.56 691.80 L 839.10 691.77 L 839.64 691.74 L 840.18 691.70 L 840.72 691.67 L 841.26 691.63 L 841.66 691.60 L 842.05 691.57 L 842.45 691.53 L 842.84 691.50 L 843.24 691.46 L 843.64 691.43 L 844.03 691.40 L 844.43 691.36 L 844.82 691.33 L 845.22 691.29 L 845.45 691.26 L 845.68 691.23 L 845.92 691.19 L 846.15 691.16 L 846.38 691.12 L 846.61 691.09 L 846.85 691.06 L 847.08 691.02 L 847.31 690.99 L 847.55 690.95 L 847.61 690.92 L 847.67 690.89 L 847.73 690.85 L 847.79 690.82 L 847.85 690.78 L 847.92 690.75 L 847.98 690.72 L 848.04 690.68 L 848.10 690.65 L 848.16 690.61 L 848.05 690.58 L 847.94 690.55 L 847.83 690.51 " fill="none" stroke="#eab308" stroke-width="2" stroke-opacity="0.75"/>
<circle cx="847.83" cy="690.51" r="5" fill="#eab308"/>
<text x="855.83" y="682.51" class="small">T4</text>
<path d="M 150.00 466.67 L 150.00 466.67 L 150.00 466.67 L 150.00 466.67 L 150.06 466.68 L 150.25 466.73 L 150.56 466.81 L 150.99 466.92 L 151.55 467.07 L 152.24 467.25 L 153.04 467.46 L 153.97 467.70 L 155.03 467.97 L 156.21 468.28 L 157.51 468.62 L 158.94 468.99 L 160.49 469.39 L 162.17 469.83 L 163.97 470.30 L 165.90 470.80 L 167.95 471.33 L 170.12 471.89 L 172.42 472.49 L 174.84 473.12 L 177.38 473.78 L 180.05 474.47 L 182.85 475.20 L 185.77 475.96 L 188.81 476.75 L 191.98 477.57 L 195.27 478.42 L 198.68 479.31 L 202.22 480.23 L 205.89 481.18 L 209.67 482.17 L 213.59 483.18 L 217.62 484.23 L 221.75 485.30 L 225.89 486.38 L 230.03 487.45 L 234.17 488.53 L 238.31 489.60 L 242.45 490.68 L 246.59 491.75 L 250.73 492.83 L 254.87 493.90 L 259.01 494.98 L 263.15 496.05 L 267.29 497.13 L 271.43 498.21 L 275.57 499.28 L 279.71 500.36 L 283.85 501.43 L 287.99 502.51 L 292.13 503.58 L 296.27 504.66 L 300.41 505.73 L 304.55 506.81 L 308.69 507.88 L 312.83 508.96 L 316.97 510.03 L 321.11 511.11 L 325.25 512.18 L 329.39 513.26 L 333.53 514.33 L 337.67 515.41 L 341.81 516.48 L 345.95 517.56 L 350.09 518.63 L 354.23 519.71 L 358.37 520.78 L 362.51 521.86 L 366.64 522.93 L 370.78 524.01 L 374.92 525.08 L 379.06 526.16 L 383.20 527.23 L 387.34 528.31 L 391.48 529.39 L 395.62 530.46 L 399.76 531.54 L 403.90 532.61 L 408.04 533.69 L 412.18 534.76 " class="drone"/>
<circle cx="150.00" cy="466.67" r="7" class="start"/>
<text x="160.00" y="456.67" class="small">start</text>
<circle cx="412.18" cy="534.76" r="7" class="end"/>
<text x="422.18" y="552.76" class="small">drone end</text>
<circle cx="413.76" cy="535.17" r="10" class="drop"/>
<text x="425.76" y="523.17" class="small">drop point</text>
<rect x="40" y="700" width="300" height="88" rx="10" fill="#111827" stroke="#334155"/>
<line x1="58" y1="725" x2="102" y2="725" class="legend-line" stroke="#38bdf8"/>
<text x="112" y="730" class="small">drone path</text>
<circle cx="80" cy="752" r="6" class="start"/>
<text x="112" y="757" class="small">start</text>
<circle cx="80" cy="779" r="8" class="drop"/>
<text x="112" y="784" class="small">drop point</text>
</svg>
