<svg xmlns="http://www.w3.org/2000/svg" width="1100" height="820" viewBox="0 0 1100 820">
<rect width="100%" height="100%" fill="#0f172a"/>
<style>
text { fill: #e2e8f0; font-family: Arial, sans-serif; }
.title { font-size: 22px; font-weight: bold; }
.meta { font-size: 14px; }
.small { font-size: 12px; }
.grid { stroke: #334155; stroke-width: 1; }
.frame { fill: #111827; stroke: #475569; stroke-width: 2; }
.drone { fill: none; stroke: #38bdf8; stroke-width: 4; }
.drop { fill: #f8fafc; stroke: #f97316; stroke-width: 3; }
.start { fill: #22c55e; }
.end { fill: #38bdf8; }
.legend-line { stroke-width: 3; fill: none; }
</style>
<text x="40" y="38" class="title">Drone Simulation</text>
<text x="40" y="62" class="meta">steps=80, totalTime=7.90 s, selectedTarget=2, dropped=YES</text>
<rect x="70.00" y="70.00" width="960.00" height="680.00" class="frame"/>
<line x1="70.00" y1="70.00" x2="70.00" y2="750.00" class="grid"/>
<line x1="70.00" y1="70.00" x2="1030.00" y2="70.00" class="grid"/>
<line x1="166.00" y1="70.00" x2="166.00" y2="750.00" class="grid"/>
<line x1="70.00" y1="138.00" x2="1030.00" y2="138.00" class="grid"/>
<line x1="262.00" y1="70.00" x2="262.00" y2="750.00" class="grid"/>
<line x1="70.00" y1="206.00" x2="1030.00" y2="206.00" class="grid"/>
<line x1="358.00" y1="70.00" x2="358.00" y2="750.00" class="grid"/>
<line x1="70.00" y1="274.00" x2="1030.00" y2="274.00" class="grid"/>
<line x1="454.00" y1="70.00" x2="454.00" y2="750.00" class="grid"/>
<line x1="70.00" y1="342.00" x2="1030.00" y2="342.00" class="grid"/>
<line x1="550.00" y1="70.00" x2="550.00" y2="750.00" class="grid"/>
<line x1="70.00" y1="410.00" x2="1030.00" y2="410.00" class="grid"/>
<line x1="646.00" y1="70.00" x2="646.00" y2="750.00" class="grid"/>
<line x1="70.00" y1="478.00" x2="1030.00" y2="478.00" class="grid"/>
<line x1="742.00" y1="70.00" x2="742.00" y2="750.00" class="grid"/>
<line x1="70.00" y1="546.00" x2="1030.00" y2="546.00" class="grid"/>
<line x1="838.00" y1="70.00" x2="838.00" y2="750.00" class="grid"/>
<line x1="70.00" y1="614.00" x2="1030.00" y2="614.00" class="grid"/>
<line x1="934.00" y1="70.00" x2="934.00" y2="750.00" class="grid"/>
<line x1="70.00" y1="682.00" x2="1030.00" y2="682.00" class="grid"/>
<line x1="1030.00" y1="70.00" x2="1030.00" y2="750.00" class="grid"/>
<line x1="70.00" y1="750.00" x2="1030.00" y2="750.00" class="grid"/>
<path d="M 601.58 184.26 L 602.65 186.27 L 603.71 188.28 L 604.77 190.28 L 605.83 192.29 L 606.89 194.30 L 607.95 196.30 L 609.01 198.31 L 610.07 200.32 L 611.13 202.32 L 612.19 204.33 L 615.77 205.24 L 619.35 206.14 L 622.93 207.05 L 626.52 207.96 L 630.10 208.87 L 633.68 209.78 L 637.26 210.68 L 640.84 211.59 L 644.42 212.50 L 648.00 213.41 L 651.67 212.60 L 655.33 211.79 L 659.00 210.99 L 662.67 210.18 L 666.34 209.37 L 670.00 208.56 L 673.67 207.76 L 677.34 206.95 L 681.01 206.14 L 684.67 205.34 L 685.94 203.36 L 687.20 201.39 L 688.46 199.41 L 689.73 197.44 L 690.99 195.46 L 692.25 193.49 L 693.51 191.52 L 694.78 189.54 L 696.04 187.57 L 697.30 185.59 L 695.30 183.79 L 693.30 181.99 L 691.30 180.19 L 689.31 178.39 L 687.31 176.59 L 685.31 174.79 L 683.31 172.99 L 681.31 171.19 L 679.31 169.39 L 677.31 167.59 L 673.40 167.19 L 669.50 166.79 L 665.60 166.39 L 661.69 165.98 L 657.79 165.58 L 653.89 165.18 L 649.98 164.77 L 646.08 164.37 L 642.17 163.97 L 638.27 163.57 L 635.12 164.83 L 631.96 166.10 L 628.80 167.37 L 625.65 168.64 L 622.49 169.91 L 619.34 171.17 L 616.18 172.44 L 613.02 173.71 L 609.87 174.98 L 606.71 176.25 L 606.45 178.32 L 606.19 180.40 L 605.92 182.48 L 605.66 184.56 L 605.39 186.63 L 605.13 188.71 L 604.87 190.79 L 604.60 192.86 L 604.34 194.94 " fill="none" stroke="#ef4444" stroke-width="2" stroke-opacity="0.75"/>
<circle cx="604.34" cy="194.94" r="5" fill="#ef4444"/>
<text x="612.34" y="186.94" class="small">T0</text>
<path d="M 673.42 226.05 L 678.60 225.26 L 683.78 224.47 L 688.96 223.68 L 694.14 222.89 L 699.32 222.10 L 704.50 221.31 L 709.68 220.53 L 714.86 219.74 L 720.04 218.95 L 725.22 218.16 L 728.78 216.04 L 732.35 213.92 L 735.91 211.80 L 739.47 209.68 L 743.03 207.56 L 746.60 205.44 L 750.16 203.32 L 753.72 201.20 L 757.28 199.08 L 760.85 196.96 L 761.68 194.17 L 762.51 191.38 L 763.34 188.59 L 764.18 185.80 L 765.01 183.01 L 765.84 180.22 L 766.67 177.43 L 767.50 174.64 L 768.34 171.85 L 769.17 169.07 L 767.01 166.48 L 764.85 163.89 L 762.70 161.30 L 760.54 158.72 L 758.38 156.13 L 756.22 153.54 L 754.06 150.95 L 751.90 148.37 L 749.75 145.78 L 747.59 143.19 L 743.11 141.61 L 738.64 140.04 L 734.17 138.46 L 729.69 136.88 L 725.22 135.30 L 720.74 133.73 L 716.27 132.15 L 711.79 130.57 L 707.32 128.99 L 702.84 127.42 L 697.45 127.34 L 692.06 127.27 L 686.66 127.19 L 681.27 127.12 L 675.88 127.04 L 670.48 126.97 L 665.09 126.89 L 659.70 126.82 L 654.30 126.74 L 648.91 126.67 L 644.28 128.12 L 639.65 129.57 L 635.03 131.02 L 630.40 132.47 L 625.77 133.92 L 621.14 135.37 L 616.51 136.82 L 611.89 138.27 L 607.26 139.73 L 602.63 141.18 L 600.21 143.70 L 597.79 146.22 L 595.38 148.75 L 592.96 151.27 L 590.54 153.80 L 588.12 156.32 L 585.71 158.84 L 583.29 161.37 L 580.87 163.89 " fill="none" stroke="#f59e0b" stroke-width="2" stroke-opacity="0.75"/>
<circle cx="580.87" cy="163.89" r="5" fill="#f59e0b"/>
<text x="588.87" y="155.89" class="small">T1</text>
<path d="M 678.08 258.77 L 680.96 260.28 L 683.84 261.80 L 686.73 263.31 L 689.61 264.83 L 692.50 266.35 L 695.38 267.86 L 698.26 269.38 L 701.15 270.89 L 704.03 272.41 L 706.91 273.92 L 710.49 274.96 L 714.07 275.99 L 717.65 277.02 L 721.23 278.06 L 724.81 279.09 L 728.38 280.13 L 731.96 281.16 L 735.54 282.19 L 739.12 283.23 L 742.70 284.26 L 746.69 284.73 L 750.67 285.20 L 754.66 285.67 L 758.65 286.14 L 762.64 286.61 L 766.62 287.08 L 770.61 287.55 L 774.60 288.01 L 778.59 288.48 L 782.57 288.95 L 786.65 288.82 L 790.73 288.69 L 794.81 288.56 L 798.89 288.42 L 802.97 288.29 L 807.05 288.16 L 811.13 288.03 L 815.21 287.89 L 819.29 287.76 L 823.37 287.63 L 827.22 286.91 L 831.06 286.18 L 834.91 285.46 L 838.76 284.74 L 842.60 284.01 L 846.45 283.29 L 850.30 282.57 L 854.14 281.84 L 857.99 281.12 L 861.83 280.39 L 865.14 279.14 L 868.45 277.88 L 871.75 276.62 L 875.06 275.37 L 878.37 274.11 L 881.68 272.85 L 884.98 271.60 L 888.29 270.34 L 891.60 269.08 L 894.90 267.82 L 897.41 266.13 L 899.91 264.44 L 902.41 262.75 L 904.92 261.06 L 907.42 259.37 L 909.93 257.68 L 912.43 255.99 L 914.93 254.30 L 917.44 252.61 L 919.94 250.92 L 921.44 248.93 L 922.94 246.94 L 924.45 244.95 L 925.95 242.96 L 927.45 240.97 L 928.95 238.98 L 930.45 236.99 L 931.95 235.01 L 933.45 233.02 " fill="none" stroke="#22c55e" stroke-width="2" stroke-opacity="0.75"/>
<circle cx="933.45" cy="233.02" r="5" fill="#22c55e"/>
<text x="941.45" y="225.02" class="small">T2</text>
<path d="M 654.11 193.21 L 653.62 193.46 L 653.14 193.72 L 652.66 193.97 L 652.18 194.22 L 651.69 194.47 L 651.21 194.73 L 650.73 194.98 L 650.25 195.23 L 649.76 195.48 L 649.28 195.74 L 648.80 195.99 L 648.31 196.24 L 647.83 196.49 L 647.35 196.75 L 646.87 197.00 L 646.38 197.25 L 645.90 197.50 L 645.42 197.76 L 644.94 198.01 L 644.45 198.26 L 643.97 198.52 L 643.49 198.77 L 643.00 199.02 L 642.52 199.27 L 642.04 199.53 L 641.56 199.78 L 641.07 200.03 L 640.59 200.28 L 640.11 200.54 L 639.62 200.79 L 639.14 201.04 L 638.66 201.29 L 638.18 201.55 L 637.69 201.80 L 637.21 202.05 L 636.73 202.30 L 636.25 202.56 L 635.76 202.81 L 635.28 203.06 L 634.80 203.31 L 634.31 203.57 L 633.83 203.82 L 633.35 204.07 L 632.87 204.32 L 632.38 204.58 L 631.90 204.83 L 631.42 205.08 L 630.94 205.33 L 630.45 205.59 L 629.97 205.84 L 629.49 206.09 L 629.00 206.35 L 628.52 206.60 L 628.04 206.85 L 627.56 207.10 L 627.07 207.36 L 626.59 207.61 L 626.11 207.86 L 625.63 208.11 L 625.14 208.37 L 624.66 208.62 L 624.18 208.87 L 623.69 209.12 L 623.21 209.38 L 622.73 209.63 L 622.25 209.88 L 621.76 210.13 L 621.28 210.39 L 620.80 210.64 L 620.32 210.89 L 619.83 211.14 L 619.35 211.40 L 618.87 211.65 L 618.38 211.90 L 617.90 212.15 L 617.42 212.41 L 616.94 212.66 L 616.45 212.91 L 615.97 213.17 " fill="none" stroke="#a855f7" stroke-width="2" stroke-opacity="0.75"/>
<circle cx="615.97" cy="213.17" r="5" fill="#a855f7"/>
<text x="623.97" y="205.17" class="small">T3</text>
<path d="M 596.18 155.32 L 595.70 155.07 L 595.21 154.82 L 594.73 154.56 L 594.25 154.31 L 593.77 154.06 L 593.28 153.81 L 592.80 153.55 L 592.32 153.30 L 591.83 153.05 L 591.35 152.80 L 591.83 152.54 L 592.32 152.29 L 592.80 152.04 L 593.28 151.79 L 593.77 151.53 L 594.25 151.28 L 594.73 151.03 L 595.21 150.78 L 595.70 150.52 L 596.18 150.27 L 596.66 150.02 L 597.14 149.77 L 597.63 149.51 L 598.11 149.26 L 598.59 149.01 L 599.08 148.76 L 599.56 148.50 L 600.04 148.25 L 600.52 148.00 L 601.01 147.75 L 601.49 147.49 L 601.97 147.24 L 602.45 146.99 L 602.94 146.73 L 603.42 146.48 L 603.90 146.23 L 604.39 145.98 L 604.87 145.72 L 605.35 145.47 L 605.83 145.22 L 606.32 144.97 L 606.80 144.71 L 607.28 144.46 L 607.76 144.21 L 608.25 143.96 L 608.73 143.70 L 609.21 143.45 L 609.70 143.20 L 610.18 142.95 L 610.66 142.69 L 611.14 142.95 L 611.63 143.20 L 612.11 143.45 L 612.59 143.70 L 613.07 143.96 L 613.56 144.21 L 614.04 144.46 L 614.52 144.71 L 615.01 144.97 L 615.49 145.22 L 615.97 145.47 L 616.45 145.72 L 616.94 145.98 L 617.42 146.23 L 617.90 146.48 L 618.38 146.73 L 618.87 146.99 L 619.35 147.24 L 619.83 147.49 L 620.32 147.75 L 620.80 148.00 L 621.28 148.25 L 621.76 148.50 L 622.25 148.76 L 622.73 149.01 L 623.21 149.26 L 623.69 149.51 L 624.18 149.77 L 624.66 150.02 " fill="none" stroke="#eab308" stroke-width="2" stroke-opacity="0.75"/>
<circle cx="624.66" cy="150.02" r="5" fill="#eab308"/>
<text x="632.66" y="142.02" class="small">T4</text>
<path d="M 166.55 693.33 L 166.55 693.33 L 166.55 693.33 L 166.55 693.33 L 166.55 693.33 L 166.55 693.33 L 166.71 693.26 L 167.18 693.02 L 167.98 692.64 L 169.10 692.10 L 170.53 691.40 L 172.50 690.70 L 174.86 689.88 L 177.58 688.95 L 180.67 687.89 L 184.12 686.70 L 187.93 685.39 L 192.11 683.96 L 196.65 682.40 L 201.56 680.72 L 206.83 678.91 L 212.25 676.82 L 218.02 674.59 L 224.14 672.23 L 230.61 669.74 L 237.43 667.11 L 244.61 664.35 L 252.14 661.46 L 260.02 658.43 L 268.25 655.27 L 276.84 651.98 L 285.32 648.25 L 294.14 644.38 L 303.29 640.36 L 312.79 636.20 L 322.62 631.90 L 332.78 627.45 L 343.29 622.86 L 354.13 618.13 L 365.24 613.29 L 376.37 608.44 L 386.77 603.17 L 397.17 597.90 L 407.58 592.63 L 418.00 587.36 L 428.42 582.10 L 438.84 576.84 L 449.27 571.58 L 459.70 566.32 L 470.13 561.07 L 480.58 555.82 L 490.15 550.13 L 499.73 544.45 L 509.31 538.77 L 518.89 533.08 L 528.47 527.40 L 538.07 521.73 L 547.67 516.06 L 557.29 510.39 L 566.92 504.73 L 576.56 499.08 L 585.16 492.98 L 593.76 486.88 L 602.36 480.79 L 610.97 474.69 L 619.57 468.60 L 628.18 462.50 L 636.79 456.41 L 645.40 450.32 L 654.01 444.23 L 662.63 438.13 L 669.94 431.59 L 677.25 425.05 L 684.54 418.50 L 691.82 411.95 L 699.09 405.40 L 706.35 398.84 L 713.60 392.28 L 720.83 385.72 L 728.05 379.15 " class="drone"/>
<circle cx="166.55" cy="693.33" r="7" class="start"/>
<text x="176.55" y="683.33" class="small">start</text>
<circle cx="728.05" cy="379.15" r="7" class="end"/>
<text x="738.05" y="397.15" class="small">drone end</text>
<circle cx="732.16" cy="375.41" r="10" class="drop"/>
<text x="744.16" y="363.41" class="small">drop point</text>
<rect x="40" y="700" width="300" height="88" rx="10" fill="#111827" stroke="#334155"/>
<line x1="58" y1="725" x2="102" y2="725" class="legend-line" stroke="#38bdf8"/>
<text x="112" y="730" class="small">drone path</text>
<circle cx="80" cy="752" r="6" class="start"/>
<text x="112" y="757" class="small">start</text>
<circle cx="80" cy="779" r="8" class="drop"/>
<text x="112" y="784" class="small">drop point</text>
</svg>
